<svg xmlns="http://www.w3.org/2000/svg" viewBox="0 0 32 32">
  <!-- Body -->
  <ellipse cx="16" cy="18" rx="5" ry="6" fill="#4f46e5"/>
  <!-- Head -->
  <circle cx="16" cy="10" r="4" fill="#6366f1"/>
  <!-- Eyes -->
  <circle cx="14.5" cy="9.5" r="1" fill="#fff"/>
  <circle cx="17.5" cy="9.5" r="1" fill="#fff"/>
  <!-- Wings (circuit-trace style) -->
  <path d="M11 16 L4 12 L4 10 L7 10" fill="none" stroke="#818cf8" stroke-width="1.5" stroke-linecap="round"/>
  <path d="M11 18 L3 18 L3 20 L5 20" fill="none" stroke="#818cf8" stroke-width="1.5" stroke-linecap="round"/>
  <path d="M21 16 L28 12 L28 10 L25 10" fill="none" stroke="#818cf8" stroke-width="1.5" stroke-linecap="round"/>
  <path d="M21 18 L29 18 L29 20 L27 20" fill="none" stroke="#818cf8" stroke-width="1.5" stroke-linecap="round"/>
  <!-- Antenna -->
  <line x1="14" y1="6" x2="12" y2="3" stroke="#6366f1" stroke-width="1.2" stroke-linecap="round"/>
  <line x1="18" y1="6" x2="20" y2="3" stroke="#6366f1" stroke-width="1.2" stroke-linecap="round"/>
  <circle cx="12" cy="3" r="1.2" fill="#818cf8"/>
  <circle cx="20" cy="3" r="1.2" fill="#818cf8"/>
  <!-- Circuit dots on wings -->
  <circle cx="4" cy="10" r="1" fill="#a5b4fc"/>
  <circle cx="5" cy="20" r="1" fill="#a5b4fc"/>
  <circle cx="28" cy="10" r="1" fill="#a5b4fc"/>
  <circle cx="27" cy="20" r="1" fill="#a5b4fc"/>
</svg>
